<?xml version="1.0" encoding="iso-8859-1"?>
<!-- Uploaded to: SVG Repo, www.svgrepo.com, Generator: SVG Repo Mixer Tools -->
<svg height="800px" width="800px" version="1.1" id="Layer_1" xmlns="http://www.w3.org/2000/svg" xmlns:xlink="http://www.w3.org/1999/xlink" 
	 viewBox="0 0 512 512" xml:space="preserve">
<path style="fill:#F58422;" d="M0,256.006C0,397.402,114.606,512.004,255.996,512C397.394,512.004,512,397.402,512,256.006
	C512.009,114.61,397.394,0,255.996,0C114.606,0,0,114.614,0,256.006z"/>
<path style="fill:#F58422;" d="M511.103,277.403c-40.82-40.841-157.556-157.02-157.614-157.069c-1.299-1.533-3.17-2.559-5.339-2.559
	c-42.994,0-77.972,35.886-77.972,79.995c0,7.819-0.085,15.647,0.036,23.462c-0.297-0.282-100.13-100.016-100.215-100.089
	c-0.252-0.297-0.512-0.557-0.81-0.81c-1.299-1.533-3.169-2.559-5.339-2.559c-42.995,0-77.973,35.886-77.973,79.995v118.482
	c0,21.702,8.93,41.344,23.287,55.494c0.268,0.272,140.033,140.033,140.083,140.083c0.18,0.004,0.359,0.012,0.54,0.017
	c0.026,0.026,0.05,0.05,0.076,0.076c2.039,0.048,4.082,0.078,6.133,0.078C390.187,512.004,500.232,408.782,511.103,277.403z"/>
<g>
	<path style="fill:#F4F6F9;" d="M163.85,238.278c-26.368,0-49.678,13.189-63.796,33.282v-73.792
		c0-36.29,28.617-65.818,63.796-65.818c3.918,0,7.088-3.174,7.088-7.088s-3.17-7.088-7.088-7.088
		c-42.994,0-77.973,35.886-77.973,79.995v118.482c0,42.994,34.978,77.973,77.973,77.973s77.973-34.978,77.973-77.973
		S206.845,238.278,163.85,238.278z M163.85,380.048c-35.18,0-63.796-28.621-63.796-63.796s28.617-63.796,63.796-63.796
		s63.796,28.621,63.796,63.796S199.029,380.048,163.85,380.048z"/>
	<path style="fill:#F4F6F9;" d="M348.15,238.278c-26.368,0-49.678,13.189-63.796,33.282v-73.792
		c0-36.29,28.617-65.818,63.796-65.818c3.918,0,7.088-3.174,7.088-7.088s-3.17-7.088-7.088-7.088
		c-42.994,0-77.973,35.886-77.973,79.995v118.482c0,42.994,34.978,77.973,77.973,77.973s77.973-34.978,77.973-77.973
		S391.145,238.278,348.15,238.278z M348.15,380.048c-35.18,0-63.796-28.621-63.796-63.796s28.617-63.796,63.796-63.796
		s63.796,28.621,63.796,63.796S383.329,380.048,348.15,380.048z"/>
</g>
</svg>