<svg id="visual" viewBox="0 0 900 600" width="900" height="600" xmlns="http://www.w3.org/2000/svg" xmlns:xlink="http://www.w3.org/1999/xlink" version="1.1"><path d="M0 88L15 88.3C30 88.7 60 89.3 90 95.2C120 101 150 112 180 108.5C210 105 240 87 270 81.5C300 76 330 83 360 85.3C390 87.7 420 85.3 450 77.5C480 69.7 510 56.3 540 49.7C570 43 600 43 630 42.5C660 42 690 41 720 53.7C750 66.3 780 92.7 810 100.7C840 108.7 870 98.3 885 93.2L900 88L900 0L885 0C870 0 840 0 810 0C780 0 750 0 720 0C690 0 660 0 630 0C600 0 570 0 540 0C510 0 480 0 450 0C420 0 390 0 360 0C330 0 300 0 270 0C240 0 210 0 180 0C150 0 120 0 90 0C60 0 30 0 15 0L0 0Z" fill="#050201" stroke-linecap="round" stroke-linejoin="miter"></path></svg>