<svg xmlns="http://www.w3.org/2000/svg" version="1.1" xmlns:xlink="http://www.w3.org/1999/xlink" xmlns:svgjs="http://svgjs.dev/svgjs" width="1000" height="525" viewBox="0 0 1000 525"><g transform="matrix(1,0,0,1,-0.6060606060606233,0.5888849732508561)"><svg viewBox="0 0 396 208" data-background-color="#ffffff" preserveAspectRatio="xMidYMid meet" height="525" width="1000" xmlns="http://www.w3.org/2000/svg" xmlns:xlink="http://www.w3.org/1999/xlink"><g id="tight-bounds" transform="matrix(1,0,0,1,0.2400000000000091,-0.2333106179736717)"><svg viewBox="0 0 395.52 208.46662123594734" height="208.46662123594734" width="395.52"><g><svg viewBox="0 0 665.8200475500108 350.9335954285714" height="208.46662123594734" width="395.52"><g transform="matrix(1,0,0,1,268.3224475500109,83.25270358981751)"><svg viewBox="0 0 397.4975999999999 184.42818824893635" height="184.42818824893635" width="397.4975999999999"><g id="textblocktransform"><svg viewBox="0 0 397.4975999999999 184.42818824893635" height="184.42818824893635" width="397.4975999999999" id="textblock"><g><rect width="397.4975999999999" height="8.65953154650419" x="0" y="106.22488721044826" fill="#000000" opacity="1" stroke-width="0" stroke="transparent" fill-opacity="1" class="rect-o-0" data-fill-palette-color="primary" rx="1%" id="o-0" data-palette-color="#000000"></rect></g><g transform="matrix(1,0,0,1,0.9887999999999693,0)"><svg viewBox="0 0 395.52 96.02386837294333" height="96.02386837294333" width="395.52"><g transform="matrix(1,0,0,1,0,0)"><svg width="395.52" viewBox="1.149999976158142 -33.20000076293945 136.74000549316406 33.20000076293945" height="96.02386837294333" data-palette-color="#000000"><path d="M13.3 0L1.15 0 1.15-1.05 2.2-1.35Q3.2-1.65 3.5-2.25 3.8-2.85 3.8-3.85L3.8-3.85 3.8-29.15Q3.8-30.2 3.48-30.78 3.15-31.35 2.15-31.65L2.15-31.65 1.15-32 1.15-33.05 13.3-33.05 13.3-32 12.25-31.65Q11.3-31.4 11-30.8 10.7-30.2 10.7-29.15L10.7-29.15 10.7-3.8Q10.7-2.8 11.05-2.23 11.4-1.65 12.35-1.35L12.35-1.35 13.3-1.05 13.3 0ZM31.9 0L19.35 0 19.35-1.05 19.95-1.2Q20.9-1.45 20.95-2.15 21-2.85 20.3-3.75L20.3-3.75 10.75-17 22.95-29.4Q23.7-30.15 23.78-30.78 23.85-31.4 22.85-31.75L22.85-31.75 22-32 22-33.05 29.9-33.05 29.9-32 28.6-31.65Q27.45-31.3 26.75-30.83 26.05-30.35 25.15-29.4L25.15-29.4 16.25-20.35 27.7-4Q28.5-2.9 29.23-2.25 29.95-1.6 31.2-1.25L31.2-1.25 31.9-1.05 31.9 0ZM40.4 0L32.75 0 32.75-1.05 34.1-1.45Q35.15-1.75 35.72-2.35 36.3-2.95 36.65-4L36.65-4 46.75-33.2 50.9-33.2 60.95-3.8Q61.35-2.7 61.85-2.13 62.35-1.55 63.45-1.2L63.45-1.2 64.2-1 64.2 0 51.5 0 51.5-1 52.35-1.25Q53.45-1.6 53.67-2.35 53.9-3.1 53.55-4.2L53.55-4.2 51.45-10.65 40.4-10.65 38.25-4.3Q37.9-3.2 38.05-2.5 38.2-1.8 39.3-1.4L39.3-1.4 40.4-1.05 40.4 0ZM46.1-27.15L40.9-12.1 51-12.1 46.1-27.15ZM79.19 0L66 0 66-1.05 67-1.3Q68-1.6 68.3-2.2 68.59-2.8 68.59-3.85L68.59-3.85Q68.64-6.7 68.64-9.63 68.64-12.55 68.64-15.5L68.64-15.5 68.64-17.55Q68.64-20.45 68.64-23.35 68.64-26.25 68.59-29.15L68.59-29.15Q68.59-30.2 68.27-30.78 67.94-31.35 66.94-31.7L66.94-31.7 66-32 66-33.05 78.05-33.05Q85.34-33.05 88.67-30.33 92-27.6 92-23.15L92-23.15Q92-20.35 90.62-17.98 89.25-15.6 86.09-14.2 82.94-12.8 77.59-12.8L77.59-12.8 75.8-12.8Q75.8-10.7 75.8-8.47 75.8-6.25 75.84-3.95L75.84-3.95Q75.84-1.9 77.69-1.45L77.69-1.45 79.19-1.05 79.19 0ZM75.8-17.55L75.8-14.25 77.89-14.25Q80.39-14.25 81.97-15.03 83.55-15.8 84.32-17.7 85.09-19.6 85.09-22.95L85.09-22.95Q85.09-26.3 84.27-28.18 83.44-30.05 81.8-30.83 80.14-31.6 77.69-31.6L77.69-31.6 75.84-31.6Q75.8-28.15 75.8-24.63 75.8-21.1 75.8-17.55L75.8-17.55ZM106.54 0L94.04 0 94.04-1.05 95.04-1.35Q96.04-1.7 96.37-2.27 96.69-2.85 96.69-3.9L96.69-3.9 96.69-29.15Q96.69-30.2 96.37-30.78 96.04-31.35 95.04-31.7L95.04-31.7 94.04-32 94.04-33.05 106.54-33.05 106.54-32 105.54-31.7Q104.59-31.35 104.24-30.78 103.89-30.2 103.89-29.15L103.89-29.15 103.89-3.9Q103.89-2.85 104.24-2.27 104.59-1.7 105.54-1.35L105.54-1.35 106.54-1.05 106.54 0ZM131.04 0L115.59 0 115.59-1.05 117.59-1.45Q119.69-1.9 119.69-3.9L119.69-3.9 119.69-17.55Q119.69-21.05 119.69-24.55 119.69-28.05 119.64-31.55L119.64-31.55 115.69-31.55Q114.09-31.55 113.34-30.7 112.59-29.85 111.84-28.3L111.84-28.3 110.09-24.6 108.69-24.6 108.94-33.05 137.64-33.05 137.89-24.6 136.49-24.6 134.74-28.3Q133.99-29.85 133.24-30.7 132.49-31.55 130.89-31.55L130.89-31.55 126.89-31.55 126.89-3.9Q126.89-1.85 128.99-1.45L128.99-1.45 131.04-1.05 131.04 0Z" opacity="1" transform="matrix(1,0,0,1,0,0)" fill="#000000" class="wordmark-text-0" data-fill-palette-color="primary" id="text-0"></path></svg></g></svg></g><g transform="matrix(1,0,0,1,0,125.08543759445737)"><svg viewBox="0 0 227.16764108860386 59.34275065447898" height="59.34275065447898" width="227.16764108860386"><g transform="matrix(1,0,0,1,0,0)"><svg width="227.16764108860386" viewBox="1.0499999523162842 -35.5 139.08999633789062 36.349998474121094" height="59.34275065447898" data-palette-color="#89939e"><path d="M18.25 0.85L18.25 0.85Q13.4 0.85 9.5-1.15 5.6-3.15 3.33-7.05 1.05-10.95 1.05-16.55L1.05-16.55Q1.05-20.75 2.43-24 3.8-27.25 6.23-29.48 8.65-31.7 11.8-32.83 14.95-33.95 18.5-33.95L18.5-33.95Q21.25-33.95 23.65-33.33 26.05-32.7 28.25-31.5L28.25-31.5 28.45-24.95 27.1-24.95 25-28.9Q24.5-29.9 23.93-30.7 23.35-31.5 22.45-31.85L22.45-31.85Q21.2-32.45 19.5-32.45L19.5-32.45Q16.55-32.45 14.13-30.95 11.7-29.45 10.25-25.98 8.8-22.5 8.8-16.5L8.8-16.5Q8.8-10.55 10.18-7.05 11.55-3.55 13.9-2.08 16.25-0.6 19.2-0.6L19.2-0.6Q20.55-0.6 21.4-0.8 22.25-1 23.1-1.35L23.1-1.35Q24.1-1.75 24.65-2.53 25.2-3.3 25.6-4.3L25.6-4.3 27.5-8.85 28.85-8.85 28.65-1.65Q26.5-0.45 23.9 0.2 21.3 0.85 18.25 0.85ZM43.7 0.7L43.7 0.7Q40 0.7 37.22-0.85 34.45-2.4 32.92-5.25 31.4-8.1 31.4-12.05L31.4-12.05Q31.4-16 33.02-18.85 34.65-21.7 37.42-23.23 40.2-24.75 43.7-24.75L43.7-24.75Q47.2-24.75 49.97-23.23 52.75-21.7 54.37-18.88 56-16.05 56-12.05L56-12.05Q56-8.1 54.47-5.23 52.95-2.35 50.2-0.83 47.45 0.7 43.7 0.7ZM43.7-0.7L43.7-0.7Q45.5-0.7 46.62-1.68 47.75-2.65 48.25-5.1 48.75-7.55 48.75-11.95L48.75-11.95Q48.75-16.4 48.25-18.88 47.75-21.35 46.62-22.33 45.5-23.3 43.7-23.3L43.7-23.3Q41.9-23.3 40.8-22.33 39.7-21.35 39.17-18.88 38.65-16.4 38.65-11.95L38.65-11.95Q38.65-7.55 39.17-5.1 39.7-2.65 40.8-1.68 41.9-0.7 43.7-0.7ZM71.25 0L58.35 0 58.35-0.95 59.1-1.15Q61.1-1.7 61.15-3.6L61.15-3.6Q61.15-5.35 61.17-7.08 61.2-8.8 61.2-10.5L61.2-10.5 61.2-22.45 58.35-22.45 58.35-23.55 59.45-23.75Q60.45-23.9 60.9-24.48 61.35-25.05 61.55-26.1L61.55-26.1Q62.1-28.1 63.02-29.58 63.95-31.05 65.25-32.3L65.25-32.3Q67.09-34.1 69.2-34.8 71.3-35.5 73.3-35.5L73.3-35.5Q75.25-35.5 76.87-34.73 78.5-33.95 78.5-32.1L78.5-32.1Q78.5-30.8 77.72-30.03 76.95-29.25 75.5-29.25L75.5-29.25Q73.2-29.25 71.45-31.95L71.45-31.95 70.84-32.65Q70.25-33.4 69.65-33.25 69.05-33.1 68.8-32.25L68.8-32.25Q68.4-30.65 68.17-28.5 67.95-26.35 67.9-24L67.9-24 73.65-24 73.65-22.45 67.9-22.45 67.9-10.5Q67.9-8.8 67.92-7.13 67.95-5.45 67.95-3.75L67.95-3.75Q67.95-1.75 69.95-1.3L69.95-1.3 71.25-0.95 71.25 0ZM88.29 0L75.39 0 75.39-0.95 76.14-1.15Q78.14-1.7 78.19-3.6L78.19-3.6Q78.19-5.35 78.22-7.08 78.24-8.8 78.24-10.5L78.24-10.5 78.24-22.45 75.39-22.45 75.39-23.55 76.49-23.75Q77.49-23.9 77.94-24.48 78.39-25.05 78.59-26.1L78.59-26.1Q79.14-28.1 80.07-29.58 80.99-31.05 82.29-32.3L82.29-32.3Q84.14-34.1 86.24-34.8 88.34-35.5 90.34-35.5L90.34-35.5Q92.29-35.5 93.92-34.73 95.54-33.95 95.54-32.1L95.54-32.1Q95.54-30.8 94.77-30.03 93.99-29.25 92.54-29.25L92.54-29.25Q90.24-29.25 88.49-31.95L88.49-31.95 87.89-32.65Q87.29-33.4 86.69-33.25 86.09-33.1 85.84-32.25L85.84-32.25Q85.44-30.65 85.22-28.5 84.99-26.35 84.94-24L84.94-24 90.69-24 90.69-22.45 84.94-22.45 84.94-10.5Q84.94-8.8 84.97-7.13 84.99-5.45 84.99-3.75L84.99-3.75Q84.99-1.75 86.99-1.3L86.99-1.3 88.29-0.95 88.29 0ZM104.89-24.75L104.89-24.75Q108.04-24.75 110.29-23.45 112.54-22.15 113.77-19.88 114.99-17.6 114.99-14.65L114.99-14.65Q114.99-14 114.94-13.43 114.89-12.85 114.74-12.35L114.74-12.35 99.69-12.35Q99.74-7.2 101.62-4.95 103.49-2.7 107.09-2.7L107.09-2.7Q109.59-2.7 111.14-3.53 112.69-4.35 113.99-5.85L113.99-5.85 114.79-5.1Q113.29-2.35 110.72-0.83 108.14 0.7 104.59 0.7L104.59 0.7Q101.04 0.7 98.34-0.8 95.64-2.3 94.12-5.13 92.59-7.95 92.59-11.9L92.59-11.9Q92.59-16 94.37-18.85 96.14-21.7 98.97-23.23 101.79-24.75 104.89-24.75ZM104.64-23.3L104.64-23.3Q103.19-23.3 102.12-22.48 101.04-21.65 100.42-19.58 99.79-17.5 99.69-13.75L99.69-13.75 108.64-13.75Q109.19-18.8 108.24-21.05 107.29-23.3 104.64-23.3ZM130.04-24.75L130.04-24.75Q133.19-24.75 135.44-23.45 137.69-22.15 138.91-19.88 140.14-17.6 140.14-14.65L140.14-14.65Q140.14-14 140.09-13.43 140.04-12.85 139.89-12.35L139.89-12.35 124.84-12.35Q124.89-7.2 126.76-4.95 128.64-2.7 132.24-2.7L132.24-2.7Q134.74-2.7 136.29-3.53 137.84-4.35 139.14-5.85L139.14-5.85 139.94-5.1Q138.44-2.35 135.86-0.83 133.29 0.7 129.74 0.7L129.74 0.7Q126.19 0.7 123.49-0.8 120.79-2.3 119.26-5.13 117.74-7.95 117.74-11.9L117.74-11.9Q117.74-16 119.51-18.85 121.29-21.7 124.11-23.23 126.94-24.75 130.04-24.75ZM129.79-23.3L129.79-23.3Q128.34-23.3 127.26-22.48 126.19-21.65 125.56-19.58 124.94-17.5 124.84-13.75L124.84-13.75 133.79-13.75Q134.34-18.8 133.39-21.05 132.44-23.3 129.79-23.3Z" opacity="1" transform="matrix(1,0,0,1,0,0)" fill="#89939e" class="slogan-text-1" data-fill-palette-color="secondary" id="text-1"></path></svg></g></svg></g></svg></g></svg></g><g><svg viewBox="0 0 245.65351679999995 350.9335954285714" height="350.9335954285714" width="245.65351679999995"><g><svg version="1.1" xmlns="http://www.w3.org/2000/svg" xmlns:xlink="http://www.w3.org/1999/xlink" x="0" y="0" viewBox="0 0 70 100" enable-background="new 0 0 70 100" xml:space="preserve" height="350.9335954285714" width="245.65351679999995" class="icon-icon-0" data-fill-palette-color="accent" id="icon-0"><path d="M35 19L35 19H1.633l13.675 81h19.691H35h19.691l13.675-81H35zM13.455 65L8.56 36l52.88 0-4.896 29H13.455z" fill="#000000" data-fill-palette-color="accent"></path><path d="M68 9h-6l-2-9H35 10L8 9H2l-2 6h35 35L68 9zM34.857 11.475c-4.419 0-8-1.791-8-4s3.581-4 8-4c4.416 0 8 1.791 8 4S39.273 11.475 34.857 11.475z" fill="#000000" data-fill-palette-color="accent"></path></svg></g></svg></g></svg></g><defs></defs></svg><rect width="395.52" height="208.46662123594734" fill="none" stroke="none" visibility="hidden"></rect></g></svg></g></svg>